<svg xmlns="http://www.w3.org/2000/svg" aria-hidden="true" style="position:absolute;width:0;height:0;overflow:hidden"><defs><symbol id="icon-phone" viewBox="0 0 32 32"><path stroke-linecap="round" stroke-linejoin="round" stroke-width="1.333" d="M26.667 21.337v3.226a2.147 2.147 0 0 1-2.347 2.138l.008.001c-3.481-.388-6.626-1.563-9.338-3.343l.081.05a21.113 21.113 0 0 1-6.386-6.353l-.05-.083A20.982 20.982 0 0 1 5.35 7.768l-.008-.095a2.145 2.145 0 0 1 2.136-2.338h3.239c1.079 0 1.972.797 2.123 1.834l.001.012c.136 1.029.387 2.04.751 3.013a2.144 2.144 0 0 1-.483 2.264l-1.363 1.361c1.555 2.7 3.736 4.881 6.353 6.392l.083.044 1.363-1.361a2.14 2.14 0 0 1 2.278-.477l-.015-.005c.973.363 1.984.613 3.013.751a2.148 2.148 0 0 1 1.847 2.125l-.001.056v-.003z"/></symbol><symbol id="icon-map-pin" viewBox="0 0 32 32"><path stroke-linecap="round" stroke-linejoin="round" stroke-width="1.333" d="M26.667 13.819C26.667 21.454 16 28 16 28S5.333 21.453 5.333 13.819C5.333 8.396 10.109 4 16 4s10.667 4.396 10.667 9.819v0z"/><path stroke-linecap="round" stroke-linejoin="round" stroke-width="1.333" d="M16 18.667a4 4 0 0 0 0-8v0a4 4 0 0 0 0 8v0z"/></symbol><symbol id="icon-mail" viewBox="0 0 32 32"><path stroke-linecap="round" stroke-linejoin="round" stroke-width="1.333" d="M6.4 6.667h19.2C26.92 6.667 28 7.716 28 9v14c0 1.283-1.08 2.333-2.4 2.333H6.4C5.08 25.333 4 24.282 4 23V9c0-1.284 1.08-2.333 2.4-2.333z"/><path stroke-linecap="round" stroke-linejoin="round" stroke-width="1.333" d="m26.667 9.333-10.667 8-10.667-8"/></symbol></defs></svg>